# xmcd
#
# Track frame offsets: 
#        150
#        18130
#        37940
#        57965
#        76622
#        103492
#        125715
#        146350
#        163785
#        188847
#        209167
#        229615
#
# Disc length: 3269 seconds
#
# Revision: 4
# Processed by: cddbd v1.5.2PL0 Copyright (c) Steve Scherf et al.
# Submitted via: ExactAudioCopy v1.0b1
#
DISCID=9f0cc30c
DTITLE=Sherman Robertson - I'm The Man
DYEAR=1993
DGENRE=Bluesrock
TTITLE0=I'm Your Man
TTITLE1=Somebody's Messin'
TTITLE2=Am I Loving You?
TTITLE3=Special Kind Of Loving
TTITLE4=Make It Rain
TTITLE5=Out Of Sight Out Of Mind
TTITLE6=Linda Lou
TTITLE7=Home Of The Blues
TTITLE8=Our Good Thing Is Through
TTITLE9=Vacating The Blues
TTITLE10=Helping Hand
TTITLE11=Take A Message
EXTD=
EXTT0=
EXTT1=
EXTT2=
EXTT3=
EXTT4=
EXTT5=
EXTT6=
EXTT7=
EXTT8=
EXTT9=
EXTT10=
EXTT11=
PLAYORDER=
